<svg xmlns="http://www.w3.org/2000/svg" version="1.1" xmlns:xlink="http://www.w3.org/1999/xlink" xmlns:svgjs="http://svgjs.dev/svgjs" width="100%" height="100%" viewBox="0 0 1000 600"><rect width="1000" height="600" x="0" y="0" fill="#ffffff"/><g><circle r="166.66666666666666" cx="373.5886789957682" cy="395.8108947724961" fill="#660099" transform="matrix(0.6040922981172349,0,0,0.6040922981172347,0,60.89366682921242)"/><path d="M312.3859993817308 393.7040110249072Q320.40394736179053 394.9623021312669 327.04655390001517 400.22956722765645Q333.6598978543709 405.496832324046 337.5810840927943 413.3099422170239Q341.4730077473488 421.093789526133 341.4730077473488 429.9603524383887L341.4730077473488 429.9603524383887Q341.4730077473488 441.1093968924133 335.76680389292676 450.0637475562756Q330.0898626223735 459.01809822013786 319.2334440070373 464.19757556492095Q308.37702539170095 469.3477903258352 293.6286831218102 469.3477903258352L293.6286831218102 469.3477903258352L238.84912611935863 469.3477903258352L238.84912611935863 322.5081444720414L291.52177708325434 322.5081444720414Q306.50422002409584 322.5081444720414 317.038750216875 327.4535211458738Q327.5732804096541 332.3988978197063 332.84054550604367 340.8265219739296Q338.10781060243323 349.2541461281529 338.10781060243323 359.7886763209321L338.10781060243323 359.7886763209321Q338.10781060243323 372.8397887264307 331.02626530617613 381.3844632161293Q323.9739825937879 389.92913770582794 312.3859993817308 393.7040110249072L312.3859993817308 393.7040110249072ZM258.0453811373117 338.3099397612101L258.0453811373117 385.9201637157981L290.26348597689463 385.9201637157981Q303.7535371404257 385.9201637157981 311.1277082753711 379.5994456001306Q318.5018794103165 373.27872748446316 318.5018794103165 362.10042044656973L318.5018794103165 362.10042044656973Q318.5018794103165 350.9513759925451 311.1277082753711 344.63065787687765Q303.7535371404257 338.3099397612101 289.853809802731 338.3099397612101L289.853809802731 338.3099397612101L258.0453811373117 338.3099397612101ZM291.9607158412868 453.5459950366665Q306.27011935314516 453.5459950366665 314.2880673332048 446.81560074683534Q322.30601531326454 440.0559438731354 322.30601531326454 428.0582844869147L322.30601531326454 428.0582844869147Q322.30601531326454 415.82652442974336 313.8783911590412 408.7742417173551Q305.45076700481786 401.72195900496683 291.31693899617255 401.72195900496683L291.31693899617255 401.72195900496683L258.0453811373117 401.72195900496683L258.0453811373117 453.5459950366665L291.9607158412868 453.5459950366665ZM434.58654961796896 470.81091951927675Q414.16126607752494 470.81091951927675 397.30601776907827 461.242054594169Q380.45076946063165 451.6439270851925 370.64780386457323 434.4667903541887Q360.8448382685149 417.31891620705375 360.8448382685149 395.81091706346297L360.8448382685149 395.81091706346297Q360.8448382685149 374.33218050374103 370.64780386457323 357.15504377273726Q380.45076946063165 339.9779070417335 397.30601776907827 330.40904211662576Q414.16126607752494 320.81091460764924 434.58654961796896 320.81091460764924L434.58654961796896 320.81091460764924Q455.2459338293636 320.81091460764924 472.10118213781027 330.40904211662576Q488.95643044625683 339.9779070417335 498.6423457068398 357.03799343726195Q508.3282609674229 374.12734241665925 508.3282609674229 395.81091706346297L508.3282609674229 395.81091706346297Q508.3282609674229 417.5237542941356 498.6423457068398 434.583840689664Q488.95643044625683 451.6439270851925 472.10118213781027 461.242054594169Q455.2459338293636 470.81091951927675 434.58654961796896 470.81091951927675L434.58654961796896 470.81091951927675ZM434.58654961796896 454.18977188178076Q449.97866873297403 454.18977188178076 462.2982165417519 447.0204388339172Q474.6177643505297 439.8511057860536 481.6700470629179 426.5658927096043Q488.751592359175 413.3099422170239 488.751592359175 395.81091706346297L488.751592359175 395.81091706346297Q488.751592359175 378.10705382282026 481.6700470629179 364.9388910818463Q474.6177643505297 351.7707283408724 462.41526687722717 344.63065787687765Q450.18350682005587 337.461324829014 434.58654961796896 337.461324829014L434.58654961796896 337.461324829014Q418.98959241588204 337.461324829014 406.78709494257953 344.63065787687765Q394.5553348854082 351.7707283408724 387.5030521730199 364.9388910818463Q380.45076946063165 378.10705382282026 380.45076946063165 395.81091706346297L380.45076946063165 395.81091706346297Q380.45076946063165 413.3099422170239 387.5030521730199 426.5658927096043Q394.5553348854082 439.8511057860536 406.874882694186 447.0204388339172Q419.22369308683267 454.18977188178076 434.58654961796896 454.18977188178076L434.58654961796896 454.18977188178076Z " fill="#ffffff" transform="matrix(0.6040922981172349,0,0,0.6040922981172347,0,60.89366682921242)"/><path d="M691.3123687670478 399.39517679956754Q698.696486645717 400.55399821848283 704.8139857641766 405.40487857673264Q710.9045355473124 410.25575893498245 714.5157464806762 417.4512314663864Q718.1000080787163 424.61975466246673 718.1000080787163 432.7854032655206L718.1000080787163 432.7854032655206Q718.1000080787163 443.05310002381606 712.8448876906124 451.29959663284075Q707.616716637832 459.54609324186544 697.6185132327726 464.31612559414447Q687.6203098277133 469.05920861109985 674.0378448246138 469.05920861109985L674.0378448246138 469.05920861109985L623.5886890988154 469.05920861109985L623.5886890988154 333.827443957224L672.0974926813137 333.827443957224Q685.8955523670022 333.827443957224 695.5973130835018 338.38188162691415Q705.2990738000015 342.93631929660427 710.1499541582514 350.697727869804Q715.0008345165012 358.45913644300373 715.0008345165012 368.16089715950335L715.0008345165012 368.16089715950335Q715.0008345165012 380.1803007138335 708.4790953681875 388.04950662832766Q701.9843055551975 395.9187125428219 691.3123687670478 399.39517679956754L691.3123687670478 399.39517679956754ZM641.2674530711038 348.3800850319735L641.2674530711038 392.22665360348725L670.9386712623985 392.22665360348725Q683.3623148465829 392.22665360348725 690.1535473481326 386.40559717358747Q696.9447798496824 380.5845407436877 696.9447798496824 370.28989465006856L696.9447798496824 370.28989465006856Q696.9447798496824 360.0221978917731 690.1535473481326 354.2011414618733Q683.3623148465829 348.3800850319735 670.561380567868 348.3800850319735L670.561380567868 348.3800850319735L641.2674530711038 348.3800850319735ZM672.501732711168 454.50656753635036Q685.6799576844132 454.50656753635036 693.0640755630825 448.30822041192005Q700.4481934417518 442.0829239521661 700.4481934417518 431.0336964694859L700.4481934417518 431.0336964694859Q700.4481934417518 419.76887430421687 692.686784868552 413.2740844912268Q684.9253762953522 406.77929467823674 671.9088473340485 406.77929467823674L671.9088473340485 406.77929467823674L641.2674530711038 406.77929467823674L641.2674530711038 454.50656753635036L672.501732711168 454.50656753635036ZM788.9228613091639 470.81091540713453Q773.9659802045603 470.81091540713453 761.8387793089357 464.0196829055847Q749.7115784133111 457.22845040403496 742.8394979057905 444.69700947855625Q735.9404680629463 432.19251788840114 735.9404680629463 415.6995246703517L735.9404680629463 415.6995246703517Q735.9404680629463 399.39517679956754 743.0281432530558 386.8906852094124Q750.1158184431653 374.3592442839337 762.3238673447606 367.6758091236784Q774.5588655816797 360.99237396342306 789.7043920335486 360.99237396342306L789.7043920335486 360.99237396342306Q804.822969150094 360.99237396342306 817.0579673870129 367.6758091236784Q829.2660162886083 374.3592442839337 836.3536914787178 386.782887868118Q843.4413666688273 399.2065314523023 843.4413666688273 415.6995246703517L843.4413666688273 415.6995246703517Q843.4413666688273 432.19251788840114 836.1650461314525 444.69700947855625Q828.8887255940778 457.22845040403496 816.4650820098934 464.0196829055847Q804.0414384257092 470.81091540713453 788.9228613091639 470.81091540713453L788.9228613091639 470.81091540713453ZM788.9228613091639 455.28809826073507Q798.4359766783983 455.28809826073507 806.7633212933938 450.8145085970158Q815.117615243713 446.3678682686201 820.2649382905225 437.4206889411815Q825.3853120020085 428.50045894906657 825.3853120020085 415.6995246703517L825.3853120020085 415.6995246703517Q825.3853120020085 402.8985903916369 820.3457862964933 393.97836039952193Q815.3062605909782 385.03118107208337 807.167561323248 380.6653887496585Q799.0019127201941 376.29959642723367 789.4887973509597 376.29959642723367L789.4887973509597 376.29959642723367Q779.78703663446 376.29959642723367 771.7561347080242 380.6653887496585Q763.6982834462648 385.03118107208337 758.847403088015 393.97836039952193Q753.996522729765 402.8985903916369 753.996522729765 415.6995246703517L753.996522729765 415.6995246703517Q753.996522729765 428.6891042963318 758.7396057467205 437.6362836237704Q763.5096380989995 446.55651361588536 771.4596920194645 450.9223059383102Q779.4097459399295 455.28809826073507 788.9228613091639 455.28809826073507L788.9228613091639 455.28809826073507ZM918.5222148804053 360.7767792808342Q937.9257363134046 360.7767792808342 949.9720892030583 372.5266894819282Q961.9914927573885 384.27659968302225 961.9914927573885 406.3750546483826L961.9914927573885 406.3750546483826L961.9914927573885 469.05920861109985L944.528323467689 469.05920861109985L944.528323467689 408.90829216880195Q944.528323467689 393.00818432787196 936.5782695472241 384.54609303625836Q928.6282156267591 376.11095107996834 914.8571052763943 376.11095107996834L914.8571052763943 376.11095107996834Q900.8704002434406 376.11095107996834 892.6239036344159 384.84253572481805Q884.3774070253912 393.57412036966775 884.3774070253912 410.25575893498245L884.3774070253912 410.25575893498245L884.3774070253912 469.05920861109985L866.7255923884265 469.05920861109985L866.7255923884265 362.7171314241341L884.3774070253912 362.7171314241341L884.3774070253912 377.862657876003Q889.6325274134952 369.72395860827277 898.6336054115809 365.2503689445535Q907.6616327449904 360.7767792808342 918.5222148804053 360.7767792808342L918.5222148804053 360.7767792808342ZM1000.0170048990024 345.4695568170236Q994.9774791934873 345.4695568170236 991.5010149367415 341.9661432249543Q987.9976013446723 338.46272963288493 987.9976013446723 333.42320392736985L987.9976013446723 333.42320392736985Q987.9976013446723 328.3836782218548 991.5010149367415 324.8802646297854Q994.9774791934873 321.40380037303976 1000.0170048990024 321.40380037303976L1000.0170048990024 321.40380037303976Q1004.8678852572523 321.40380037303976 1008.263501508027 324.8802646297854Q1011.659117758802 328.3836782218548 1011.659117758802 333.42320392736985L1011.659117758802 333.42320392736985Q1011.659117758802 338.46272963288493 1008.263501508027 341.9661432249543Q1004.8678852572523 345.4695568170236 1000.0170048990024 345.4695568170236L1000.0170048990024 345.4695568170236ZM990.9081295596222 362.7171314241341L1008.5599441965868 362.7171314241341L1008.5599441965868 469.05920861109985L990.9081295596222 469.05920861109985L990.9081295596222 362.7171314241341ZM1081.9160349474537 362.7171314241341L1081.9160349474537 377.2697724988836L1059.6019852995046 377.2697724988836L1059.6019852995046 469.05920861109985L1041.95017066254 469.05920861109985L1041.95017066254 377.2697724988836L1028.1521109768514 377.2697724988836L1028.1521109768514 362.7171314241341L1041.95017066254 362.7171314241341L1041.95017066254 355.1713175335233Q1041.95017066254 337.30390821396975 1051.1668433432146 329.057411604945Q1060.3835160238891 320.8109149959203 1080.7572135285386 320.8109149959203L1080.7572135285386 320.8109149959203L1080.7572135285386 335.55220141793507Q1069.115100668739 335.55220141793507 1064.34506831646 340.1335884229488Q1059.6019852995046 344.6880260926389 1059.6019852995046 355.1713175335233L1059.6019852995046 355.1713175335233L1059.6019852995046 362.7171314241341L1081.9160349474537 362.7171314241341ZM1095.8757906450837 415.51087932308644Q1095.8757906450837 399.2065314523023 1102.4783777993682 386.8906852094124Q1109.0809649536527 374.5748389665226 1120.615280472158 367.7836064649728Q1132.1765453259868 360.99237396342306 1146.3249463708821 360.99237396342306L1146.3249463708821 360.99237396342306Q1160.3116514038356 360.99237396342306 1170.5793481621313 367.00207574058817Q1180.8739942557504 373.0117775177532 1185.9135199612654 382.12065285713345L1185.9135199612654 382.12065285713345L1185.9135199612654 362.7171314241341L1203.7539799454953 362.7171314241341L1203.7539799454953 469.05920861109985L1185.9135199612654 469.05920861109985L1185.9135199612654 449.27839648356996Q1180.6853489084851 458.5759171702155 1170.2829054735716 464.693416288675Q1159.9074113739816 470.81091540713453 1146.1363010236169 470.81091540713453L1146.1363010236169 470.81091540713453Q1131.9609506433978 470.81091540713453 1120.5344324661871 463.83103755831945Q1109.0809649536527 456.82421037418084 1102.4783777993682 444.2119214427313Q1095.8757906450837 431.59963251128175 1095.8757906450837 415.51087932308644L1095.8757906450837 415.51087932308644ZM1185.9135199612654 415.6995246703517Q1185.9135199612654 403.68012111602155 1181.0626396030157 394.732941788583Q1176.2117592447657 385.812711796468 1167.965262635741 381.06962877951264Q1159.7187660267164 376.29959642723367 1149.8283599629513 376.29959642723367L1149.8283599629513 376.29959642723367Q1139.9379538991864 376.29959642723367 1131.7723052961326 380.9618314382182Q1123.6336060284023 385.62406644920276 1118.7827256701523 394.5442964413177Q1113.9318453119026 403.4645264334327 1113.9318453119026 415.51087932308644L1113.9318453119026 415.51087932308644Q1113.9318453119026 427.71892822468186 1118.7827256701523 436.74695555809126Q1123.6336060284023 445.77498289150066 1131.7723052961326 450.5180659084561Q1139.9379538991864 455.28809826073507 1149.8283599629513 455.28809826073507L1149.8283599629513 455.28809826073507Q1159.7187660267164 455.28809826073507 1167.965262635741 450.5180659084561Q1176.2117592447657 445.77498289150066 1181.0626396030157 436.74695555809126Q1185.9135199612654 427.71892822468186 1185.9135199612654 415.6995246703517L1185.9135199612654 415.6995246703517ZM1227.0382056650947 415.6995246703517Q1227.0382056650947 399.2065314523023 1233.6407928193792 386.8906852094124Q1240.2433799736634 374.5748389665226 1251.9932901747575 367.7836064649728Q1263.716251040528 360.99237396342306 1278.8617774923969 360.99237396342306L1278.8617774923969 360.99237396342306Q1298.4539442726616 360.99237396342306 1311.1740305454055 370.4785399973338Q1323.8671674828258 379.99165536656824 1327.936517116691 396.8888886144718L1327.936517116691 396.8888886144718L1308.937235713546 396.8888886144718Q1306.2153528458612 387.1871278979722 1298.346146931367 381.5547168153376Q1290.5038903521965 375.9223057327031 1278.8617774923969 375.9223057327031L1278.8617774923969 375.9223057327031Q1263.716251040528 375.9223057327031 1254.4187303538824 386.29779983229304Q1245.0942603319133 396.67329393188294 1245.0942603319133 415.6995246703517L1245.0942603319133 415.6995246703517Q1245.0942603319133 434.91440075608574 1254.4187303538824 445.3976921969701Q1263.716251040528 455.85403430253086 1278.8617774923969 455.85403430253086L1278.8617774923969 455.85403430253086Q1290.5038903521965 455.85403430253086 1298.2652989253963 450.43721790248526Q1306.026707498596 444.993452167116 1308.937235713546 434.91440075608574L1308.937235713546 434.91440075608574L1327.936517116691 434.91440075608574Q1323.6785221355606 451.21874862686997 1310.8775878568456 461.0013573493404Q1298.076653578131 470.81091540713453 1278.8617774923969 470.81091540713453L1278.8617774923969 470.81091540713453Q1263.716251040528 470.81091540713453 1251.9932901747575 464.0196829055847Q1240.2433799736634 457.22845040403496 1233.6407928193792 444.8048068198507Q1227.0382056650947 432.3811632356664 1227.0382056650947 415.6995246703517L1227.0382056650947 415.6995246703517ZM1448.4539446838758 411.81882038375187Q1448.4539446838758 416.85834608926695 1447.8610593067563 422.49075717190146L1447.8610593067563 422.49075717190146L1362.86285569609 422.49075717190146Q1363.8330317677398 438.2022196655662 1373.642589825534 447.0416016517103Q1383.4521478833278 455.85403430253086 1397.411903580958 455.85403430253086L1397.411903580958 455.85403430253086Q1408.8653710934925 455.85403430253086 1416.5189823253975 450.5180659084561Q1424.1995428926266 445.18209751438127 1427.2987164548417 436.2618675222663L1427.2987164548417 436.2618675222663L1446.2979978579867 436.2618675222663Q1442.0400028768565 451.59603932140044 1429.2390685981416 461.1900026966057Q1416.438134319427 470.81091540713453 1397.411903580958 470.81091540713453L1397.411903580958 470.81091540713453Q1382.2663771290893 470.81091540713453 1370.3547709160534 464.0196829055847Q1358.4162153676941 457.22845040403496 1351.6249828661444 444.69700947855625Q1344.8337503645946 432.19251788840114 1344.8337503645946 415.6995246703517L1344.8337503645946 415.6995246703517Q1344.8337503645946 399.2065314523023 1351.436337518879 386.782887868118Q1358.01197533784 374.3592442839337 1369.9505308861992 367.6758091236784Q1381.8890864345587 360.99237396342306 1397.411903580958 360.99237396342306L1397.411903580958 360.99237396342306Q1412.557430032827 360.99237396342306 1424.1995428926266 367.56801178238396Q1435.8416557524263 374.17059893666845 1442.147800218151 385.7318637904972Q1448.4539446838758 397.2661793090023 1448.4539446838758 411.81882038375187L1448.4539446838758 411.81882038375187ZM1430.2092446697918 408.12676144441724Q1430.2092446697918 398.04771003338703 1425.7356550060724 390.7713894960123Q1421.2890146776767 383.49506895863755 1413.6084541104478 379.69521267800855Q1405.9548428785426 375.9223057327031 1396.6303728565733 375.9223057327031L1396.6303728565733 375.9223057327031Q1383.236553200739 375.9223057327031 1373.8312351727993 384.4652450302875Q1364.425917144859 393.00818432787196 1363.0784503786788 408.12676144441724L1363.0784503786788 408.12676144441724L1430.2092446697918 408.12676144441724Z " fill="#f2000d" transform="matrix(0.6040922981172349,0,0,0.6040922981172347,0,60.89366682921242)"/></g></svg>